<svg id="Layer_3" data-name="Layer 3" xmlns="http://www.w3.org/2000/svg" viewBox="0 0 777.96 146.64"><defs><style>.cls-1{fill:#e47816;}.cls-2{fill:#007cc6;}.cls-3{fill:#ed1c24;}</style></defs><path class="cls-1" d="M323.33,410.51H284.05V399.16h95.61v11.35H340.19v92H323.33Z" transform="translate(-284.05 -395.32)"/><path class="cls-1" d="M375.67,451.45c0-8.74-.19-16.26-.77-23.16h14.75l.58,14.57H391c4.22-10,14.37-16.25,25.68-16.25a22.44,22.44,0,0,1,4.79.46v12.72a32.1,32.1,0,0,0-5.75-.46c-11.88,0-20.31,7.21-22.61,17.33a31,31,0,0,0-.76,6.29v39.56H375.67Z" transform="translate(-284.05 -395.32)"/><path class="cls-1" d="M485.41,502.51l-1.34-9.36h-.58c-5.17,5.83-15.13,11-28.35,11-18.78,0-28.36-10.58-28.36-21.31,0-17.94,19.93-27.75,55.75-27.6v-1.53c0-6.14-2.1-17.18-21.07-17.18a55,55,0,0,0-24.14,5.52l-3.83-8.89c7.66-4,18.77-6.59,30.46-6.59,28.35,0,35.25,15.48,35.25,30.36v27.75a84.07,84.07,0,0,0,1.53,17.79Zm-2.49-37.88c-18.4-.3-39.28,2.3-39.28,16.72,0,8.74,7.28,12.88,15.9,12.88,12.07,0,19.74-6.14,22.42-12.42a11.73,11.73,0,0,0,1-4.3Z" transform="translate(-284.05 -395.32)"/><path class="cls-1" d="M521,448.38c0-7.67-.19-13.95-.76-20.09h14.94l1,12.27h.38c4.6-7.05,15.33-13.95,30.65-13.95,12.84,0,32.77,6.13,32.77,31.58v44.32H583.06V459.73c0-12-5.56-21.93-21.46-21.93-11.11,0-19.74,6.29-22.61,13.8a16,16,0,0,0-1.15,6.29v44.62H521Z" transform="translate(-284.05 -395.32)"/><path class="cls-1" d="M618.78,488.71A52.46,52.46,0,0,0,641,494.07c12.26,0,18-4.9,18-11,0-6.44-4.79-10-17.25-13.64-16.66-4.76-24.52-12.12-24.52-21,0-12,12.07-21.77,32-21.77,9.38,0,17.62,2.14,22.79,4.6L667.83,441a42.87,42.87,0,0,0-19-4.29c-10,0-15.52,4.6-15.52,10.12,0,6.13,5.56,8.89,17.63,12.57,16.09,4.91,24.33,11.35,24.33,22.39,0,13-12.64,22.23-34.68,22.23-10.15,0-19.54-2-26-5.06Z" transform="translate(-284.05 -395.32)"/><path class="cls-1" d="M774.35,412.19H735.08V400.84h95.6v11.35H791.21v92H774.35Z" transform="translate(-284.05 -395.32)"/><path class="cls-1" d="M876.6,504.19l-1.34-9.35h-.57c-5.18,5.83-15.14,11-28.36,11-18.78,0-28.35-10.58-28.35-21.32,0-17.94,19.92-27.75,55.75-27.6v-1.53c0-6.13-2.11-17.17-21.08-17.17a54.94,54.94,0,0,0-24.14,5.52l-3.83-8.9c7.66-4,18.78-6.59,30.46-6.59,28.36,0,35.26,15.49,35.26,30.36V486.4a84,84,0,0,0,1.53,17.79Zm-2.49-37.87c-18.39-.31-39.28,2.3-39.28,16.71,0,8.74,7.29,12.88,15.91,12.88,12.07,0,19.73-6.13,22.41-12.42a11.48,11.48,0,0,0,1-4.29Z" transform="translate(-284.05 -395.32)"/><path class="cls-1" d="M912.31,395.32h16.86V504.19H912.31Z" transform="translate(-284.05 -395.32)"/><path class="cls-1" d="M970.38,409.12c.19,4.6-4,8.28-10.73,8.28-5.94,0-10.16-3.68-10.16-8.28s4.41-8.43,10.54-8.43C966.35,400.69,970.38,404.37,970.38,409.12ZM951.6,504.19V430h16.86v74.21Z" transform="translate(-284.05 -395.32)"/><path class="cls-1" d="M1042.14,504.19l-1.34-9.35h-.57c-5.17,5.83-15.14,11-28.36,11-18.77,0-28.35-10.58-28.35-21.32,0-17.94,19.92-27.75,55.75-27.6v-1.53c0-6.13-2.11-17.17-21.07-17.17a54.88,54.88,0,0,0-24.14,5.52l-3.84-8.9c7.67-4,18.78-6.59,30.47-6.59,28.35,0,35.25,15.49,35.25,30.36V486.4a84,84,0,0,0,1.53,17.79Zm-2.49-37.87c-18.39-.31-39.27,2.3-39.27,16.71,0,8.74,7.28,12.88,15.9,12.88,12.07,0,19.73-6.13,22.42-12.42a11.66,11.66,0,0,0,1-4.29Z" transform="translate(-284.05 -395.32)"/><rect class="cls-2" y="126.58" width="777.96" height="5.6"/><rect class="cls-3" y="141.03" width="777.96" height="5.6"/></svg>