<svg id="Layer_2" data-name="Layer 2" xmlns="http://www.w3.org/2000/svg" viewBox="0 0 236.08 204.09"><defs><style>.cls-1{fill:#fff;stroke:#231f20;stroke-miterlimit:10;opacity:0.6;}.cls-2{fill:#ed1c24;}.cls-3{fill:#007cc6;}</style></defs><path class="cls-1" d="M90.61,340.13" transform="translate(-7.66 -340.13)"/><polygon class="cls-2" points="215.96 0 215.96 27.27 167.1 27.27 167.1 119.32 135.28 119.32 135.28 26.14 81.87 26.14 81.87 0 215.96 0"/><path class="cls-3" d="M198.52,428.73l45.22-.41-18.41,36.14L182,464Z" transform="translate(-7.66 -340.13)"/><path class="cls-3" d="M178.2,471.15l43.85.28-18.28,34.7-42.06.27Z" transform="translate(-7.66 -340.13)"/><polygon class="cls-3" points="111.21 173.88 191.92 173.88 174.3 204.09 126.84 204.09 111.21 173.88"/><path class="cls-3" d="M118.6,428.73l-45.22-.41,18.41,36.14,43.37-.42Z" transform="translate(-7.66 -340.13)"/><path class="cls-3" d="M138.92,471.15l-43.85.28,18.28,34.7,42.06.27Z" transform="translate(-7.66 -340.13)"/><rect class="cls-3" y="120.49" width="65.07" height="3.73"/><rect class="cls-3" x="21.16" y="162.09" width="65.07" height="3.73"/><rect class="cls-3" x="42.25" y="199.85" width="65.07" height="3.73"/></svg>